# xmcd
#
# Track frame offsets:
#	150
#	12330
#	23002
#	35347
#	48132
#	63838
#	70694
#	83077
#	94869
#	102702
#	115884
#	125561
#	136050
#	153551
#	173021
#	183892
#	197948
#	208311
#	218475
#	230902
#	242598
#	257209
#
# Disc length: 3605 seconds
# Revision: 3
# Processed by: cddbd v1.5.2PL0 Copyright (c) Steve Scherf et al.
# Submitted via: dBpowerAMP V12.0
#
DISCID=310e1316
DTITLE=Various Artist - Gentlemen of Country
DYEAR=1900
DGENRE=Country
TTITLE0=Merle Haggard - Okie from Muskogee
TTITLE1=Waylon Jennings - Sally Was a Good Old Girl
TTITLE2=Johnny Paycheck - Take This Job and Shove It
TTITLE3=T G Sheppard - Devil in the Bottle
TTITLE4=Doug Stone - A Juke Box and a Country Song
TTITLE5=Faron Young - Alone With You
TTITLE6=Porter Wagoner - a Satisfied Man
TTITLE7=Willie Nelson - Night Life
TTITLE8=Don Gibson - Blue Blue Day
TTITLE9=Doug Stone - Fourteen Minutes Old
TTITLE10=Faron Young - Country Girl
TTITLE11=Porter Wagoner - Sorrow on the Rocks
TTITLE12=Doug Stone - Too Busy Being in Love
TTITLE13=T G Sheppard - One for the Money
TTITLE14=Faron Young - Wine Me Up
TTITLE15=Johnny Paycheck - I'm the Only Hell [Mama Ever Raised]
TTITLE16=Waylon Jennings - Lorena
TTITLE17=Willie Nelson - Healing Hands of Time
TTITLE18=Merle Haggard - Workin' Man Blues
TTITLE19=Willie Nelson - I'll Stay Around
TTITLE20=Porter Wagoner - Green, Green Grass of Home
TTITLE21=Johnny Paycheck - Slide Off of Your Satin Sheets
EXTD=
EXTT0=
EXTT1=
EXTT2=
EXTT3=
EXTT4=
EXTT5=
EXTT6=
EXTT7=
EXTT8=
EXTT9=
EXTT10=
EXTT11=
EXTT12=
EXTT13=
EXTT14=
EXTT15=
EXTT16=
EXTT17=
EXTT18=
EXTT19=
EXTT20=
EXTT21=
PLAYORDER=
